<svg width="24" height="24" viewBox="0 0 24 24" fill="none" xmlns="http://www.w3.org/2000/svg">
<path d="M22.5015 12.2331C22.5015 11.3698 22.43 10.7398 22.2753 10.0864H12.2158V13.983H18.1205C18.0015 14.9514 17.3587 16.4097 15.9301 17.3897L15.91 17.5202L19.0907 19.9349L19.311 19.9564C21.3348 18.1247 22.5015 15.4297 22.5015 12.2331Z" fill="#4285F4"/>
<path d="M12.215 22.5001C15.1078 22.5001 17.5363 21.5667 19.3102 19.9567L15.9292 17.39C15.0245 18.0083 13.8102 18.44 12.215 18.44C9.38167 18.44 6.97693 16.6083 6.11971 14.0767L5.99406 14.0871L2.68681 16.5955L2.64355 16.7133C4.40543 20.1433 8.02448 22.5001 12.215 22.5001Z" fill="#34A853"/>
<path d="M6.11997 14.0765C5.89379 13.4232 5.76289 12.7231 5.76289 11.9998C5.76289 11.2764 5.89379 10.5765 6.10807 9.92313L6.10208 9.78398L2.75337 7.23535L2.64381 7.28642C1.91765 8.70977 1.50098 10.3081 1.50098 11.9998C1.50098 13.6915 1.91765 15.2897 2.64381 16.7131L6.11997 14.0765Z" fill="#FBBC05"/>
<path d="M12.215 5.55997C14.2269 5.55997 15.584 6.41163 16.3579 7.12335L19.3817 4.23C17.5246 2.53834 15.1078 1.5 12.215 1.5C8.02451 1.5 4.40544 3.85665 2.64355 7.28662L6.10783 9.92332C6.97696 7.39166 9.38171 5.55997 12.215 5.55997Z" fill="#EF4444"/>
</svg>
